<?xml version="1.0" encoding="utf-8"?>
<!-- Generator: Adobe Illustrator 22.0.0, SVG Export Plug-In . SVG Version: 6.00 Build 0)  -->
<svg version="1.1" id="图层_1" xmlns="http://www.w3.org/2000/svg" xmlns:xlink="http://www.w3.org/1999/xlink" x="0px" y="0px"
	 viewBox="0 0 14 14" style="enable-background:new 0 0 14 14;" xml:space="preserve">
<style type="text/css">
	.st0{fill-rule:evenodd;clip-rule:evenodd;fill:#FFFFFF;}
</style>
<g id="形状_1029">
	<g>
		<path class="st0" d="M14,3.9c0-0.7-0.3-1.2-1.1-1.5L7,0.2c-1.2-0.5-2.9,0-3.7,0.9L0.5,4.4C0.1,4.8-0.1,5.3,0,5.7v2
			c0.5-0.4,1-0.5,1.7-0.5l5.7,2.1h0V12l-1.5-0.5c-0.2,0.6-0.7,1.1-1.2,1.4L7,13.8C7.3,13.9,7.7,14,8,14h0.2c0.1,0,0.2,0,0.2,0
			c0.9-0.1,1.7-0.5,2.3-1.1l2.8-3.2C13.7,9.5,14,9,14,8.6L14,3.9z M7.1,8.2L1.2,5.7C0.8,5.6,1,5.2,1,5.2l1.9-2.1l7.4,3.3L8.9,7.7
			C8.6,8.1,7.7,8.4,7.1,8.2z M9,12.3L9,12.3l0-3.1c0.2-0.1,1.5-1.2,1.7-1.3l0.1,2.7L9,12.3z M3.3,2.7l1.5-1.5C5.2,0.8,6,0.6,6.6,0.8
			l6.3,2.7c0.3,0.2,0,0.4,0,0.4l-2,2L3.3,2.7z M13,8.5l-1.3,1.4l-0.1-2.6L13,5.8l0,1.3V8.5z M5.1,10.6c-0.2-0.2-0.5-0.2-0.7,0
			l-1.4,1.3V8.5c0-0.3-0.2-0.6-0.6-0.6c-0.4,0-0.5,0.2-0.5,0.5v3.4l-1-1.3c-0.2-0.2-0.5,0-0.6,0.1c-0.1,0.2-0.1,0.4,0,0.6l1.9,2.4
			c0.2,0.2,0.4,0.2,0.6,0.1l2.4-2.3C5.2,11.2,5.2,10.8,5.1,10.6z"/>
	</g>
</g>
</svg>
