<svg 
 xmlns="http://www.w3.org/2000/svg"
 xmlns:xlink="http://www.w3.org/1999/xlink"
 width="14px" height="14px">
<path fill-rule="evenodd" 
 d="M6.999,14.000 C3.140,14.000 -0.000,10.860 -0.000,7.000 C-0.000,3.140 3.140,0.000 6.999,0.000 C10.859,0.000 14.000,3.140 14.000,7.000 C14.000,10.860 10.859,14.000 6.999,14.000 ZM6.999,1.239 C3.823,1.239 1.238,3.823 1.238,7.000 C1.238,10.177 3.823,12.761 6.999,12.761 C10.176,12.761 12.760,10.177 12.760,7.000 C12.760,3.823 10.176,1.239 6.999,1.239 ZM6.479,9.401 C6.229,9.651 5.823,9.649 5.575,9.398 L3.620,7.414 C3.373,7.164 3.376,6.761 3.627,6.514 C3.877,6.267 4.280,6.270 4.526,6.520 L6.032,8.048 L9.477,4.599 C9.725,4.350 10.128,4.350 10.376,4.599 C10.625,4.847 10.625,5.250 10.377,5.498 L6.479,9.401 Z"/>
</svg>
