<svg 
 xmlns="http://www.w3.org/2000/svg"
 xmlns:xlink="http://www.w3.org/1999/xlink"
 width="14px" height="14px">
<path fill-rule="evenodd" 
 d="M6.999,14.000 C3.140,14.000 -0.000,10.860 -0.000,7.000 C-0.000,3.140 3.140,-0.000 6.999,-0.000 C10.859,-0.000 14.000,3.140 14.000,7.000 C14.000,10.860 10.859,14.000 6.999,14.000 ZM6.999,1.239 C3.823,1.239 1.238,3.823 1.238,7.000 C1.238,10.177 3.823,12.761 6.999,12.761 C10.176,12.761 12.760,10.177 12.760,7.000 C12.760,3.823 10.176,1.239 6.999,1.239 ZM7.901,7.000 L9.300,8.399 C9.527,8.627 9.550,8.987 9.353,9.241 L9.300,9.301 L9.241,9.354 C9.010,9.532 8.689,9.532 8.459,9.354 L8.398,9.301 L7.000,7.902 L5.601,9.301 C5.374,9.528 5.013,9.551 4.759,9.354 L4.699,9.301 C4.451,9.052 4.451,8.648 4.699,8.399 L6.099,7.000 L4.699,5.601 C4.473,5.373 4.450,5.013 4.646,4.759 L4.699,4.699 L4.759,4.646 C4.989,4.468 5.311,4.468 5.541,4.646 L5.541,4.646 L5.601,4.699 L7.000,6.098 L8.398,4.699 C8.626,4.472 8.987,4.449 9.241,4.646 L9.300,4.699 C9.549,4.948 9.549,5.352 9.300,5.601 L7.901,7.000 Z"/>
</svg>
