<?xml version="1.0" encoding="utf-8"?>
<!-- Generator: Adobe Illustrator 22.0.0, SVG Export Plug-In . SVG Version: 6.00 Build 0)  -->
<svg version="1.1" id="图层_1" xmlns="http://www.w3.org/2000/svg" xmlns:xlink="http://www.w3.org/1999/xlink" x="0px" y="0px"
	 viewBox="0 0 15.9 15.9" style="enable-background:new 0 0 15.9 15.9;" xml:space="preserve">
<style type="text/css">
	.st0{fill-rule:evenodd;clip-rule:evenodd;fill:#7A8693;}
</style>
<g id="单车查询">
	<g>
		<path class="st0" d="M15.7,14.8l-1.9-1.9c1.2-1.4,1.8-3.2,1.8-5.1c0-4.4-3.5-7.9-7.9-7.9C3.5-0.1,0,3.5,0,7.8s3.6,7.9,7.9,7.9
			c1.9,0,3.6-0.7,5.1-1.8l1.9,1.9c0.1,0.1,0.3,0.2,0.5,0.2c0.2,0,0.4,0,0.5-0.2C16,15.5,16,15.1,15.7,14.8z M12.5,12.4
			C12.5,12.4,12.5,12.4,12.5,12.4c-0.1,0-0.1,0.1-0.1,0.1c-1.2,1.2-2.8,1.8-4.5,1.8c-3.6,0-6.5-2.9-6.5-6.5c0-3.6,2.9-6.5,6.5-6.5
			c3.6,0,6.5,2.9,6.5,6.5C14.3,9.5,13.7,11.1,12.5,12.4z"/>
	</g>
</g>
</svg>
