<svg 
 xmlns="http://www.w3.org/2000/svg"
 xmlns:xlink="http://www.w3.org/1999/xlink"
 width="14px" height="14px">
<path fill-rule="evenodd"  
 d="M7.000,14.000 C3.140,14.000 -0.000,10.860 -0.000,7.000 C-0.000,3.140 3.140,0.000 7.000,0.000 C10.859,0.000 14.000,3.140 14.000,7.000 C14.000,10.860 10.859,14.000 7.000,14.000 ZM2.574,3.557 C1.811,4.537 1.391,5.754 1.391,7.000 C1.391,10.092 3.907,12.608 7.000,12.608 C8.247,12.608 9.465,12.189 10.443,11.426 L2.574,3.557 ZM11.426,10.443 C12.189,9.464 12.608,8.246 12.608,7.000 C12.608,3.908 10.092,1.392 7.000,1.392 C5.753,1.392 4.535,1.811 3.557,2.574 L11.426,10.443 Z"/>
</svg>
