<svg 
 xmlns="http://www.w3.org/2000/svg"
 xmlns:xlink="http://www.w3.org/1999/xlink"
 width="14px" height="14px">
<path fill-rule="evenodd"  
 d="M6.999,14.000 C3.140,14.000 -0.000,10.860 -0.000,7.000 C-0.000,3.140 3.140,-0.000 6.999,-0.000 C10.859,-0.000 14.000,3.140 14.000,7.000 C14.000,10.860 10.859,14.000 6.999,14.000 ZM6.999,1.239 C3.823,1.239 1.238,3.823 1.238,7.000 C1.238,10.177 3.823,12.761 6.999,12.761 C10.176,12.761 12.760,10.177 12.760,7.000 C12.760,3.823 10.176,1.239 6.999,1.239 ZM7.683,9.810 C7.579,9.907 7.442,9.962 7.297,9.962 L7.141,9.938 C6.937,9.877 6.790,9.718 6.746,9.518 C6.702,9.322 6.768,9.116 6.919,8.979 L8.453,7.563 L4.105,7.563 C3.904,7.563 3.717,7.455 3.617,7.281 C3.516,7.107 3.516,6.891 3.617,6.716 C3.717,6.543 3.904,6.435 4.105,6.435 L8.453,6.435 L6.918,5.017 C6.807,4.915 6.742,4.777 6.736,4.626 C6.731,4.475 6.784,4.331 6.884,4.221 C6.987,4.110 7.126,4.045 7.277,4.039 C7.441,4.039 7.576,4.089 7.683,4.189 L10.277,6.585 C10.392,6.691 10.458,6.842 10.458,6.999 C10.458,7.155 10.392,7.306 10.278,7.413 L7.683,9.810 Z"/>
</svg>
