<?xml version="1.0" encoding="utf-8"?>
<!-- Generator: Adobe Illustrator 22.1.0, SVG Export Plug-In . SVG Version: 6.00 Build 0)  -->
<svg version="1.1" id="图层_1" xmlns="http://www.w3.org/2000/svg" xmlns:xlink="http://www.w3.org/1999/xlink" x="0px" y="0px"
	 viewBox="0 0 16 16" style="enable-background:new 0 0 16 16;" xml:space="preserve">
<style type="text/css">
	
</style>
<g>
	<path class="st0" d="M0.3,8.1V2.3c0-0.4,0-0.7,0.2-1C0.9,0.5,1.5,0,2.4,0c1.2,0,2.3,0,3.5,0c1.6,0,3.2,0,4.8,0c0.8,0,1.4,0.4,1.9,1
		C12.8,1.4,13,1.8,13,2.2c0,0.1,0,0.2,0,0.2c0,0.2-0.2,0.3-0.4,0.3c-0.2,0-0.3-0.1-0.4-0.3c0-0.1-0.1-0.3-0.1-0.4
		c-0.1-0.4-0.3-0.8-0.6-1c-0.2-0.2-0.4-0.2-0.7-0.3c0,0-0.1,0-0.1,0c-2.7,0-5.4,0-8.2,0c-0.2,0-0.5,0-0.7,0.1
		C1.4,1.2,1.2,1.6,1.1,2.1c0,0.1,0,0.2,0,0.2v11.4c0,0.2,0,0.4,0.1,0.6c0.2,0.5,0.6,0.8,1.2,0.8c0.8,0,1.5,0,2.3,0
		c2.1,0,4.2,0,6.3,0c0.5,0,0.8-0.3,1-0.8c0.1-0.2,0.1-0.4,0.1-0.7c0-0.2,0-0.5,0-0.7c0-0.3,0.3-0.4,0.6-0.3c0.2,0.1,0.3,0.2,0.3,0.3
		c0,0.5,0,1-0.1,1.5c-0.1,0.4-0.3,0.8-0.6,1.1C12,15.8,11.7,16,11.2,16c-2,0-4.1,0-6.1,0c-0.9,0-1.9,0-2.8,0c-0.9,0-1.8-0.7-2-1.6
		c-0.1-0.2-0.1-0.5-0.1-0.7C0.3,11.8,0.3,9.9,0.3,8.1L0.3,8.1z"/>
	<path class="st0" d="M14.3,8.5c0-0.1-0.1-0.1-0.2-0.1c-1.9,0-3.7,0-5.6,0c-0.1,0-0.2,0-0.3,0C8,8.4,7.8,8.2,7.8,8
		c0-0.2,0.2-0.4,0.3-0.4c0.1,0,0.1,0,0.2,0h5.7c0.1,0,0.2,0,0.2-0.1c-0.3-0.1-0.5-0.4-0.7-0.6c-0.2-0.2-0.5-0.5-0.7-0.7
		c-0.3-0.3-0.5-0.5-0.8-0.8C12,5.2,11.9,5.1,11.9,5c-0.1-0.1,0-0.3,0.1-0.4c0.1-0.1,0.3-0.1,0.4-0.1c0.1,0,0.2,0.1,0.2,0.1
		c1,1,1.9,2,2.9,2.9c0.3,0.3,0.3,0.5,0,0.7c-0.6,0.6-1.1,1.2-1.7,1.7c-0.4,0.4-0.8,0.8-1.2,1.2c-0.1,0.1-0.3,0.2-0.4,0.2
		c-0.3-0.1-0.4-0.4-0.3-0.7c0.1-0.1,0.1-0.2,0.2-0.2c0.6-0.6,1.2-1.2,1.8-1.8C14,8.6,14.1,8.6,14.3,8.5L14.3,8.5z"/>
</g>
</svg>
