<?xml version="1.0" standalone="no"?><!DOCTYPE svg PUBLIC "-//W3C//DTD SVG 1.1//EN" "http://www.w3.org/Graphics/SVG/1.1/DTD/svg11.dtd"><svg t="1595485646268" class="icon" viewBox="0 0 1024 1024" version="1.1" xmlns="http://www.w3.org/2000/svg" p-id="2984" xmlns:xlink="http://www.w3.org/1999/xlink" width="128" height="128"><defs><style type="text/css"></style></defs><path d="M802.954 974.254H221.043c-45.102 0-81.802-36.725-81.802-81.803V131.549c0-45.101 36.7-81.803 81.802-81.803h581.911c45.126 0 81.805 36.702 81.805 81.803v760.902c0 45.078-36.679 81.803-81.805 81.803M221.043 119.862c-6.321 0-11.687 5.363-11.687 11.687v760.902c0 6.32 5.365 11.686 11.687 11.686h581.911c6.322 0 11.688-5.365 11.688-11.686V131.549c0-6.323-5.365-11.687-11.688-11.687H221.043z" p-id="2985" ></path><path d="M545.769 329.231h-209.37c-19.379 0-35.058-15.703-35.058-35.058 0-19.332 15.679-35.059 35.058-35.059h209.37c19.378 0 35.057 15.727 35.057 35.059-0.001 19.355-15.68 35.058-35.057 35.058M684.222 476.13H336.398c-19.354 0-35.058-15.703-35.058-35.058 0-19.333 15.703-35.059 35.058-35.059h347.823c19.378 0 35.059 15.726 35.059 35.059 0 19.355-15.68 35.058-35.058 35.058M685.909 623.029H338.088c-19.354 0-35.06-15.703-35.06-35.059s15.705-35.059 35.06-35.059h347.821c19.378 0 35.061 15.703 35.061 35.059s-15.683 35.059-35.061 35.059M684.222 769.928H336.398c-19.354 0-35.058-15.703-35.058-35.059 0-19.33 15.703-35.059 35.058-35.059h347.823c19.378 0 35.059 15.729 35.059 35.059 0 19.356-15.68 35.059-35.058 35.059" p-id="2986" ></path></svg>