<?xml version="1.0" standalone="no"?><!DOCTYPE svg PUBLIC "-//W3C//DTD SVG 1.1//EN" "http://www.w3.org/Graphics/SVG/1.1/DTD/svg11.dtd"><svg t="1590203729747" class="icon" viewBox="0 0 1024 1024" version="1.1" xmlns="http://www.w3.org/2000/svg" p-id="2941" xmlns:xlink="http://www.w3.org/1999/xlink" width="128" height="128"><defs><style type="text/css"></style></defs><path d="M976 448a48 48 0 1 1 0-96 48 48 0 0 1 0 96z m-96-192a48 48 0 1 1 0-96 48 48 0 0 1 0 96zM960 544c-0.704-37.12 56.064-41.216 62.72-6.4C1009.28 808.384 786.112 1024 512 1024A512 512 0 1 1 512 0c13.056 0 25.856 1.024 38.656 1.92 37.12 10.432 24.704 59.968-6.656 62.08l0.832 1.664C533.952 64.896 523.072 64 512 64a448 448 0 1 0 0 896c236.736 0 430.08-183.68 446.4-416.32 0.512 0.064 1.152 0.32 1.6 0.32zM720 704h-288a48 48 0 0 1-48-48v-352a48 48 0 0 1 96 0V608h240a48 48 0 1 1 0 96z m0-576a48 48 0 1 1 0-96 48 48 0 0 1 0 96z" p-id="2942"></path></svg>