<?xml version="1.0" encoding="utf-8"?>
<!-- Generator: Adobe Illustrator 22.0.0, SVG Export Plug-In . SVG Version: 6.00 Build 0)  -->
<svg version="1.1" id="图层_1" xmlns="http://www.w3.org/2000/svg" xmlns:xlink="http://www.w3.org/1999/xlink" x="0px" y="0px"
	 viewBox="0 0 15.9 15.9" style="enable-background:new 0 0 15.9 15.9;" xml:space="preserve">
<style type="text/css">
	.st0{}
</style>
<g id="收起">
	<g>
		<path class="st0" d="M-0.1,7.9c0,4.4,3.6,8,8,8s8-3.6,8-8s-3.6-8-8-8S-0.1,3.5-0.1,7.9z M10.2,3.3c0.3,0.3,0.3,0.8,0,1.1L6.8,7.9
			l3.4,3.4c0.3,0.3,0.3,0.8,0,1.1s-0.8,0.3-1.1,0l-4-4c-0.3-0.3-0.3-0.8,0-1.1l4-4C9.3,3,9.8,3,10.2,3.3z"/>
	</g>
</g>
</svg>
