<svg 
 xmlns="http://www.w3.org/2000/svg"
 xmlns:xlink="http://www.w3.org/1999/xlink"
 width="13px" height="14px">
<path fill-rule="evenodd"  fill="rgb(146, 146, 146)"
 d="M0.659,14.000 C0.269,14.000 0.007,13.745 0.007,13.365 C0.007,12.985 0.269,12.730 0.659,12.730 L1.252,12.730 C1.195,10.332 2.634,8.929 3.586,8.002 C3.720,7.827 3.877,7.663 4.017,7.517 C4.223,7.304 4.400,7.119 4.400,7.000 C4.400,6.939 4.135,6.732 3.838,6.587 C2.974,5.957 1.195,4.655 1.195,1.214 L0.659,1.270 C0.269,1.270 0.007,1.015 0.007,0.635 C0.007,0.255 0.269,0.000 0.659,0.000 L12.341,0.000 C12.730,0.000 12.992,0.255 12.992,0.635 C12.992,1.015 12.730,1.270 12.341,1.270 L11.747,1.270 C11.805,4.656 10.025,5.957 9.169,6.582 C8.863,6.732 8.599,6.939 8.599,7.000 C8.599,7.148 8.867,7.389 9.127,7.621 C9.223,7.708 9.322,7.797 9.414,7.886 L9.596,8.085 C10.528,9.097 11.805,10.484 11.805,12.786 L12.341,12.730 C12.730,12.730 12.992,12.985 12.992,13.365 C12.992,13.745 12.730,14.000 12.341,14.000 L0.659,14.000 ZM2.498,1.270 C2.514,4.033 3.726,4.918 4.612,5.566 C5.185,5.900 5.703,6.264 5.703,7.000 C5.703,7.603 5.091,8.200 4.499,8.776 L4.320,8.973 C3.508,9.867 2.498,10.980 2.498,12.786 L10.560,12.730 C10.502,10.980 9.491,9.867 8.679,8.973 L8.498,8.773 L8.279,8.564 C7.774,8.084 7.296,7.631 7.296,7.000 C7.296,6.264 7.815,5.900 8.393,5.563 C9.280,4.914 10.502,4.021 10.502,1.214 L2.498,1.270 ZM5.408,11.685 C5.018,11.685 4.757,11.431 4.757,11.051 C4.757,10.671 5.018,10.415 5.408,10.415 L7.591,10.415 C7.981,10.415 8.243,10.671 8.243,11.051 C8.243,11.431 7.981,11.685 7.591,11.685 L5.408,11.685 Z"/>
</svg>
