<?xml version="1.0" standalone="no"?>
<!DOCTYPE svg PUBLIC "-//W3C//DTD SVG 1.1//EN" "http://www.w3.org/Graphics/SVG/1.1/DTD/svg11.dtd">
<svg xmlns="http://www.w3.org/2000/svg" xmlns:xlink="http://www.w3.org/1999/xlink" class="icon" viewBox="0 0 1024 1024" version="1.1" fill="#ffffff" width="256" height="256">
  <defs>
    <style type="text/css"/>
  </defs>
  <path d="M512 1024C229.233778 1024 0 794.766222 0 512 0 229.233778 229.233778 0 512 0 794.766222 0 1024 229.233778 1024 512 1024 794.766222 794.766222 1024 512 1024ZM426.666667 355.555556C426.666667 332.003556 407.552 312.888889 384 312.888889 360.448 312.888889 341.333333 332.003556 341.333333 355.555556L341.333333 696.888889C341.333333 720.440889 360.448 739.555556 384 739.555556 407.552 739.555556 426.666667 720.440889 426.666667 696.888889L426.666667 355.555556ZM654.222222 355.555556C654.222222 332.003556 635.107556 312.888889 611.555556 312.888889 588.003556 312.888889 568.888889 332.003556 568.888889 355.555556L568.888889 696.888889C568.888889 720.440889 588.003556 739.555556 611.555556 739.555556 635.107556 739.555556 654.222222 720.440889 654.222222 696.888889L654.222222 355.555556Z"/>
</svg>
