<svg 
 xmlns="http://www.w3.org/2000/svg"
 xmlns:xlink="http://www.w3.org/1999/xlink"
 width="17px" height="17px">
<defs>

</defs>
<path fill-rule="evenodd"
 d="M8.500,7.437 C7.913,7.437 7.437,7.913 7.437,8.500 L7.437,11.687 C7.437,12.274 7.913,12.750 8.500,12.750 C9.087,12.750 9.563,12.274 9.563,11.687 L9.563,8.500 C9.563,8.218 9.450,7.948 9.251,7.749 C9.052,7.549 8.782,7.437 8.500,7.437 L8.500,7.437 ZM8.500,-0.000 C3.806,-0.000 -0.000,3.805 -0.000,8.500 C-0.000,13.194 3.806,17.000 8.500,17.000 C13.194,17.000 17.000,13.194 17.000,8.500 C17.000,3.805 13.194,-0.000 8.500,-0.000 L8.500,-0.000 ZM8.500,14.875 C4.979,14.875 2.125,12.021 2.125,8.500 C2.125,4.979 4.979,2.125 8.500,2.125 C12.021,2.125 14.875,4.979 14.875,8.500 C14.875,10.191 14.203,11.812 13.008,13.008 C11.812,14.203 10.191,14.875 8.500,14.875 L8.500,14.875 ZM9.031,4.250 L7.969,4.250 C7.828,4.250 7.693,4.306 7.593,4.406 C7.493,4.505 7.437,4.640 7.437,4.781 L7.437,5.844 C7.437,5.985 7.493,6.120 7.593,6.219 C7.693,6.319 7.828,6.375 7.969,6.375 L9.031,6.375 C9.172,6.375 9.307,6.319 9.407,6.219 C9.506,6.120 9.563,5.985 9.563,5.844 L9.563,4.781 C9.563,4.640 9.506,4.505 9.407,4.406 C9.307,4.306 9.172,4.250 9.031,4.250 L9.031,4.250 Z"/>
<path fill="url(#PSgrad_0)"
 d="M8.500,7.437 C7.913,7.437 7.437,7.913 7.437,8.500 L7.437,11.687 C7.437,12.274 7.913,12.750 8.500,12.750 C9.087,12.750 9.563,12.274 9.563,11.687 L9.563,8.500 C9.563,8.218 9.450,7.948 9.251,7.749 C9.052,7.549 8.782,7.437 8.500,7.437 L8.500,7.437 ZM8.500,-0.000 C3.806,-0.000 -0.000,3.805 -0.000,8.500 C-0.000,13.194 3.806,17.000 8.500,17.000 C13.194,17.000 17.000,13.194 17.000,8.500 C17.000,3.805 13.194,-0.000 8.500,-0.000 L8.500,-0.000 ZM8.500,14.875 C4.979,14.875 2.125,12.021 2.125,8.500 C2.125,4.979 4.979,2.125 8.500,2.125 C12.021,2.125 14.875,4.979 14.875,8.500 C14.875,10.191 14.203,11.812 13.008,13.008 C11.812,14.203 10.191,14.875 8.500,14.875 L8.500,14.875 ZM9.031,4.250 L7.969,4.250 C7.828,4.250 7.693,4.306 7.593,4.406 C7.493,4.505 7.437,4.640 7.437,4.781 L7.437,5.844 C7.437,5.985 7.493,6.120 7.593,6.219 C7.693,6.319 7.828,6.375 7.969,6.375 L9.031,6.375 C9.172,6.375 9.307,6.319 9.407,6.219 C9.506,6.120 9.563,5.985 9.563,5.844 L9.563,4.781 C9.563,4.640 9.506,4.505 9.407,4.406 C9.307,4.306 9.172,4.250 9.031,4.250 L9.031,4.250 Z"/>
</svg>
