<svg 
 xmlns="http://www.w3.org/2000/svg"
 xmlns:xlink="http://www.w3.org/1999/xlink"
 width="10px" height="9px">
<path fill-rule="evenodd"  fill="rgb(210, 241, 255)"
 d="M6.208,8.779 L9.773,5.016 C10.051,4.722 10.051,4.246 9.773,3.952 L6.208,0.189 C5.929,-0.105 5.478,-0.105 5.200,0.189 C4.921,0.483 4.921,0.959 5.200,1.253 L7.548,3.731 L0.713,3.731 C0.319,3.731 -0.000,4.068 -0.000,4.484 C-0.000,4.900 0.319,5.237 0.713,5.237 L7.548,5.237 L5.200,7.715 C5.061,7.862 4.991,8.054 4.991,8.247 C4.991,8.440 5.060,8.632 5.200,8.779 C5.478,9.073 5.929,9.073 6.208,8.779 L6.208,8.779 Z"/>
</svg>
