<?xml version="1.0" encoding="utf-8"?>
<!-- Generator: Adobe Illustrator 21.0.0, SVG Export Plug-In . SVG Version: 6.00 Build 0)  -->
<svg version="1.1" id="图层_1" xmlns="http://www.w3.org/2000/svg" xmlns:xlink="http://www.w3.org/1999/xlink" x="0px" y="0px"
	 viewBox="0 0 18 18" style="enable-background:new 0 0 18 18;" xml:space="preserve">
<style type="text/css">
	.st0{fill-rule:evenodd;clip-rule:evenodd;fill:#2EBEF4;}
	.st1{fill-rule:evenodd;clip-rule:evenodd;fill:#FFFFFF;}
	.st2{fill-rule:evenodd;clip-rule:evenodd;fill:none;}
</style>
<g id="椭圆_2_2_">
	<g>
		<circle class="st0" cx="9" cy="9" r="9"/>
	</g>
</g>
<g id="形状_28">
	<g>
		<path class="st1" d="M9.5,9.4L9.5,9.4L9.5,9.4c-0.1,0-0.2-0.1-0.2-0.2c0-0.1,0.1-0.2,0.2-0.2h0c1.9,0,2.9-2.2,2.9-3.9
			c0-0.3-0.2-0.5-0.5-0.5H6.1c-0.3,0-0.5,0.2-0.5,0.5c0,2.1,1.6,3.9,2.9,3.9c0.1,0,0.2,0.1,0.2,0.2c0,0.1-0.1,0.2-0.2,0.2v0
			c-1.8,0-2.9,2-2.9,3.6c0,0.3,0.2,0.5,0.5,0.5h5.8c0.3,0,0.5-0.2,0.5-0.5C12.4,11.3,11.3,9.4,9.5,9.4z M8.6,7.9c-1.1,0-2-1-2-2.2
			c0-0.1,0.1-0.3,0.2-0.3c0,0,0.1,0,0.1,0c0.1,0,0.1,0,0.2,0.1c0.1,0.1,0.1,0.2,0.1,0.3c0,0.8,0.6,1.4,1.3,1.4h0.1v0
			c0,0,0.1,0,0.1,0.1c0.1,0.1,0.1,0.2,0.1,0.3C8.9,7.7,8.8,7.9,8.6,7.9z"/>
	</g>
</g>
<rect x="0" y="0" class="st2" width="18" height="18"/>
</svg>
