<?xml version="1.0" encoding="utf-8"?>
<!-- Generator: Adobe Illustrator 21.0.0, SVG Export Plug-In . SVG Version: 6.00 Build 0)  -->
<svg version="1.1" id="形状_1054_1_" xmlns="http://www.w3.org/2000/svg" xmlns:xlink="http://www.w3.org/1999/xlink" x="0px"
	 y="0px" viewBox="0 0 14 14" style="enable-background:new 0 0 14 14;" xml:space="preserve">
<style type="text/css">
	.st0{fill-rule:evenodd;clip-rule:evenodd;fill:#FFFFFF;}
</style>
<g id="形状_1054">
	<g>
		<path class="st0" d="M9.4,10.6c-0.8,0.6-1.6,0.9-2.6,0.9c-0.1,0-0.2,0-0.4,0c-0.1,0-0.1,0-0.1,0c-0.1,0-0.2,0-0.3,0
			c-0.1,0-0.1,0-0.2,0c-0.1,0-0.2,0-0.3-0.1c0,0-0.1,0-0.1,0c-0.1,0-0.2-0.1-0.3-0.1c0,0,0,0-0.1,0C5.1,11,4.9,11,4.8,10.9
			c0,0,0,0,0,0c-0.4-0.2-0.7-0.5-1-0.8l0,0C3.7,10,3.6,9.9,3.5,9.8c0,0,0,0-0.1-0.1c-0.6-0.8-1-1.8-1-3h1.2l-1.8-3L0,6.7h1.2
			c0,1.3,0.4,2.5,1,3.5c0,0,0,0,0,0c0.1,0.1,0.1,0.2,0.2,0.3c0,0,0.1,0.1,0.1,0.1c0.1,0.1,0.2,0.3,0.3,0.4l0,0
			c0.4,0.4,0.8,0.8,1.3,1.1c0,0,0,0,0,0c0.1,0.1,0.3,0.2,0.4,0.2c0,0,0.1,0,0.1,0c0.1,0.1,0.2,0.1,0.4,0.1c0.1,0,0.1,0,0.2,0.1
			c0.1,0,0.2,0.1,0.3,0.1c0.1,0,0.2,0,0.2,0.1c0,0,0.1,0,0.1,0c0.1,0,0.2,0,0.3,0c0,0,0.1,0,0.1,0c0.2,0,0.4,0,0.6,0
			c1.2,0,2.3-0.4,3.3-1.1c0.3-0.2,0.4-0.7,0.2-1C10.2,10.5,9.7,10.4,9.4,10.6z M12.8,7.2c0-1.3-0.4-2.5-1-3.5c0,0,0,0,0,0
			c-0.1-0.1-0.2-0.2-0.3-0.4c0,0,0,0,0,0c-0.6-0.8-1.3-1.4-2.2-1.8c0,0,0,0-0.1,0C9.2,1.4,9,1.4,8.9,1.3c0,0-0.1,0-0.2-0.1
			c-0.1,0-0.2-0.1-0.4-0.1c-0.1,0-0.1,0-0.2,0c0,0-0.1,0-0.1,0c-0.1,0-0.2,0-0.3,0C7.7,1,7.7,1,7.6,1C7.5,1,7.3,1,7.2,1H7.1
			C5.9,1,4.8,1.4,3.8,2.1c-0.3,0.2-0.4,0.7-0.2,1c0.2,0.3,0.6,0.4,1,0.2c0.8-0.6,1.6-0.9,2.5-0.9c0.1,0,0.3,0,0.4,0c0,0,0.1,0,0.1,0
			c0.1,0,0.2,0,0.3,0.1l0.1,0c0.1,0,0.2,0,0.3,0.1c0,0,0.1,0,0.1,0c0.1,0,0.2,0.1,0.3,0.1c0,0,0,0,0,0c0.6,0.3,1.2,0.8,1.6,1.3
			c0,0,0,0,0,0c0.6,0.8,1,1.9,1,3h-1.1l1.8,3l1.8-3H12.8z"/>
	</g>
</g>
</svg>
