<?xml version="1.0" encoding="utf-8"?>
<!-- Generator: Adobe Illustrator 22.0.0, SVG Export Plug-In . SVG Version: 6.00 Build 0)  -->
<svg version="1.1" id="图层_1" xmlns="http://www.w3.org/2000/svg" xmlns:xlink="http://www.w3.org/1999/xlink" x="0px" y="0px"
	 viewBox="0 0 15.9 15.9" style="enable-background:new 0 0 15.9 15.9;" xml:space="preserve">
<style type="text/css">
	.st0{fill-rule:evenodd;clip-rule:evenodd;}
</style>
<g id="_x34_">
	<g>
		<path class="st0" d="M4.8,6.4L4.8,6.4C4.9,8.2,6.3,10,8,10c1.7,0,3-1.8,3.2-3.6h0c0.3,0,0.6-0.3,0.6-0.7c0-0.3-0.2-0.5-0.4-0.6
			c0.1-0.4,0.2-0.8,0.2-1.3c0-2.2-1.6-3.9-3.6-3.9S4.3,1.7,4.3,3.9c0,0.4,0.1,0.9,0.2,1.3C4.3,5.3,4.2,5.5,4.2,5.8
			C4.2,6.1,4.4,6.4,4.8,6.4z M15.9,14.1c-1.5-1.5-3.3-2.5-5.2-3c0,0-0.1,0-0.2,0h-0.2c-0.1,0-0.1,0-0.2,0c-0.6,0.3-1.4,0.5-2.2,0.5
			c-0.8,0-1.6-0.2-2.2-0.5c0,0-0.1,0-0.2,0H5.5c0,0-0.1,0-0.1,0c-2,0.5-3.8,1.5-5.3,3c-0.1,0.1-0.1,0.2-0.1,0.2v1.2
			c0,0.2,0.2,0.3,0.3,0.3h15.3c0.2,0,0.3-0.2,0.3-0.3v-1.2C16,14.3,15.9,14.2,15.9,14.1z"/>
	</g>
</g>
</svg>
