<svg 
 xmlns="http://www.w3.org/2000/svg"
 xmlns:xlink="http://www.w3.org/1999/xlink"
 width="13px" height="14px">
<path fill-rule="evenodd"  
 d="M11.684,9.036 L7.435,13.774 L7.345,13.862 L7.243,13.923 L7.047,13.990 L6.956,14.000 L6.874,13.997 L6.784,13.984 L6.748,13.973 L6.653,13.930 L6.525,13.879 L6.446,13.814 L2.178,9.064 C1.368,8.050 0.953,6.877 0.953,5.641 C0.953,4.879 1.112,4.138 1.425,3.439 C1.726,2.769 2.156,2.165 2.707,1.644 C3.257,1.126 3.895,0.720 4.603,0.437 C5.338,0.145 6.118,-0.003 6.920,-0.003 C7.724,-0.003 8.504,0.145 9.236,0.437 C9.947,0.722 10.584,1.128 11.132,1.644 C11.683,2.163 12.114,2.767 12.415,3.439 C12.727,4.134 12.886,4.875 12.886,5.641 C12.886,6.877 12.471,8.051 11.684,9.036 ZM10.170,2.597 C9.302,1.780 8.149,1.329 6.921,1.329 C5.693,1.329 4.540,1.780 3.673,2.597 C2.810,3.412 2.335,4.492 2.335,5.641 C2.335,6.575 2.647,7.464 3.239,8.211 L6.921,12.314 L10.609,8.203 C11.196,7.460 11.508,6.571 11.508,5.639 C11.508,4.492 11.032,3.412 10.170,2.597 ZM6.920,8.089 C5.507,8.089 4.358,6.979 4.358,5.615 C4.358,4.250 5.507,3.140 6.920,3.140 C8.333,3.140 9.482,4.250 9.482,5.615 C9.482,6.979 8.333,8.089 6.920,8.089 ZM6.920,4.471 C6.268,4.471 5.738,4.983 5.738,5.613 C5.738,6.243 6.268,6.755 6.920,6.755 C7.572,6.755 8.102,6.243 8.102,5.613 C8.102,4.983 7.572,4.471 6.920,4.471 Z"/>
</svg>
