<svg 
 xmlns="http://www.w3.org/2000/svg"
 xmlns:xlink="http://www.w3.org/1999/xlink"
 width="16px" height="16px">
<defs>
<linearGradient id="PSgrad_0" x1="0%" x2="86.603%" y1="0%" y2="50%">
  <stop offset="0%" stop-color="rgb(81,242,103)" stop-opacity="1" />
  <stop offset="100%" stop-color="rgb(0,160,233)" stop-opacity="1" />
</linearGradient>

</defs>
<path fill-rule="evenodd"  fill="rgb(122, 134, 147)"
 d="M15.619,3.881 C15.321,3.773 14.992,3.931 14.887,4.231 L14.445,5.480 C13.925,4.302 13.104,3.266 12.059,2.490 C8.735,0.015 4.000,0.689 1.510,3.999 C0.304,5.601 -0.206,7.574 0.077,9.554 C0.360,11.543 1.408,13.302 3.022,14.506 C4.375,15.511 5.959,16.000 7.530,16.000 C9.826,16.000 12.092,14.963 13.571,13.000 C14.226,12.130 14.672,11.159 14.903,10.108 C14.970,9.795 14.774,9.489 14.466,9.421 C14.159,9.353 13.851,9.548 13.783,9.860 C13.590,10.748 13.212,11.571 12.658,12.303 C10.546,15.109 6.527,15.681 3.705,13.578 C2.337,12.560 1.451,11.073 1.211,9.390 C0.971,7.717 1.402,6.050 2.423,4.695 C4.532,1.890 8.547,1.314 11.373,3.417 C12.397,4.178 13.162,5.233 13.577,6.424 L11.607,5.651 C11.311,5.536 10.979,5.681 10.863,5.978 C10.746,6.275 10.893,6.609 11.189,6.727 L14.091,7.868 C14.159,7.896 14.229,7.908 14.300,7.908 C14.309,7.908 14.319,7.905 14.328,7.905 C14.349,7.908 14.371,7.918 14.392,7.918 C14.629,7.918 14.850,7.769 14.934,7.534 L15.966,4.627 C16.071,4.321 15.917,3.990 15.619,3.881 L15.619,3.881 Z"/>
<path fill="url(#PSgrad_0)"
 d="M15.619,3.881 C15.321,3.773 14.992,3.931 14.887,4.231 L14.445,5.480 C13.925,4.302 13.104,3.266 12.059,2.490 C8.735,0.015 4.000,0.689 1.510,3.999 C0.304,5.601 -0.206,7.574 0.077,9.554 C0.360,11.543 1.408,13.302 3.022,14.506 C4.375,15.511 5.959,16.000 7.530,16.000 C9.826,16.000 12.092,14.963 13.571,13.000 C14.226,12.130 14.672,11.159 14.903,10.108 C14.970,9.795 14.774,9.489 14.466,9.421 C14.159,9.353 13.851,9.548 13.783,9.860 C13.590,10.748 13.212,11.571 12.658,12.303 C10.546,15.109 6.527,15.681 3.705,13.578 C2.337,12.560 1.451,11.073 1.211,9.390 C0.971,7.717 1.402,6.050 2.423,4.695 C4.532,1.890 8.547,1.314 11.373,3.417 C12.397,4.178 13.162,5.233 13.577,6.424 L11.607,5.651 C11.311,5.536 10.979,5.681 10.863,5.978 C10.746,6.275 10.893,6.609 11.189,6.727 L14.091,7.868 C14.159,7.896 14.229,7.908 14.300,7.908 C14.309,7.908 14.319,7.905 14.328,7.905 C14.349,7.908 14.371,7.918 14.392,7.918 C14.629,7.918 14.850,7.769 14.934,7.534 L15.966,4.627 C16.071,4.321 15.917,3.990 15.619,3.881 L15.619,3.881 Z"/>
</svg>
