<svg 
 xmlns="http://www.w3.org/2000/svg"
 xmlns:xlink="http://www.w3.org/1999/xlink"
 width="12px" height="16px">
<path fill-rule="evenodd"  fill="rgb(255, 204, 27)"
 d="M2.909,10.580 C1.163,9.583 -0.002,7.766 -0.002,5.692 C-0.002,2.542 2.684,-0.011 6.000,-0.011 C9.316,-0.011 12.002,2.542 12.002,5.692 C12.002,7.766 10.836,9.583 9.091,10.580 C8.993,11.091 8.759,11.553 8.425,11.938 L3.575,11.938 C3.237,11.552 3.007,11.084 2.908,10.580 L2.909,10.580 ZM10.287,6.234 C10.300,3.850 8.381,1.906 6.000,1.890 C5.620,1.890 5.428,2.072 5.428,2.432 C5.428,2.523 5.620,2.703 6.000,2.703 C7.830,2.703 9.430,4.224 9.430,6.234 C9.430,6.324 9.622,6.506 10.000,6.506 C10.095,6.506 10.287,6.324 10.287,6.236 L10.287,6.234 ZM3.428,13.294 C3.428,12.995 3.683,12.754 3.998,12.754 L8.002,12.754 C8.317,12.754 8.572,12.994 8.572,13.294 C8.572,13.595 8.317,13.838 8.002,13.838 L3.998,13.838 C3.851,13.842 3.708,13.787 3.601,13.685 C3.494,13.584 3.432,13.443 3.428,13.296 L3.428,13.294 ZM8.305,14.654 C7.885,15.457 7.010,16.012 6.000,16.012 C5.040,16.022 4.152,15.499 3.695,14.654 L8.305,14.654 Z"/>
</svg>
