<?xml version="1.0" encoding="utf-8"?>
<!-- Generator: Adobe Illustrator 22.0.0, SVG Export Plug-In . SVG Version: 6.00 Build 0)  -->
<svg version="1.1" id="图层_1" xmlns="http://www.w3.org/2000/svg" xmlns:xlink="http://www.w3.org/1999/xlink" x="0px" y="0px"
	 viewBox="0 0 15.9 15.9" style="enable-background:new 0 0 15.9 15.9;" xml:space="preserve">
<style type="text/css">
	.st0{fill-rule:evenodd;clip-rule:evenodd;}
</style>
<g id="_x31_">
	<g>
		<path class="st0" d="M15.6,14h-0.7V5.4c0-0.8-0.7-1.4-1.5-1.4h-2.9v10H9.8V1.9c0-0.8-0.7-1.4-1.5-1.4H2.5C1.7,0.5,1,1.1,1,1.9V14
			H0.3C0.1,14,0,14.2,0,14.4v0.7c0,0.2,0.1,0.4,0.4,0.4h15.3c0.2,0,0.4-0.1,0.4-0.4v-0.7C16,14.2,15.8,14,15.6,14z M4.7,10.8
			c0,0.2-0.1,0.4-0.4,0.4H2.9c-0.2,0-0.4-0.1-0.4-0.4v-0.7c0-0.2,0.1-0.4,0.4-0.4h1.5c0.2,0,0.4,0.1,0.4,0.4V10.8z M4.7,7.9
			c0,0.2-0.1,0.4-0.4,0.4H2.9c-0.2,0-0.4-0.1-0.4-0.4V7.2c0-0.2,0.1-0.4,0.4-0.4h1.5c0.2,0,0.4,0.1,0.4,0.4V7.9z M4.7,5.1
			c0,0.2-0.1,0.4-0.4,0.4H2.9c-0.2,0-0.4-0.1-0.4-0.4V4.4C2.5,4.2,2.6,4,2.9,4h1.5c0.2,0,0.4,0.1,0.4,0.4V5.1z M8.3,10.8
			c0,0.2-0.1,0.4-0.4,0.4H6.5c-0.2,0-0.4-0.1-0.4-0.4v-0.7c0-0.2,0.1-0.4,0.4-0.4H8c0.2,0,0.4,0.1,0.4,0.4V10.8z M8.3,7.9
			c0,0.2-0.1,0.4-0.4,0.4H6.5c-0.2,0-0.4-0.1-0.4-0.4V7.2c0-0.2,0.1-0.4,0.4-0.4H8c0.2,0,0.4,0.1,0.4,0.4V7.9z M8.3,5.1
			c0,0.2-0.1,0.4-0.4,0.4H6.5c-0.2,0-0.4-0.1-0.4-0.4V4.4C6.1,4.2,6.3,4,6.5,4H8c0.2,0,0.4,0.1,0.4,0.4V5.1z M13.8,10.8
			c0,0.2-0.1,0.4-0.4,0.4H12c-0.2,0-0.4-0.1-0.4-0.4v-0.7c0-0.2,0.1-0.4,0.4-0.4h1.5c0.2,0,0.4,0.1,0.4,0.4V10.8z M13.8,7.9
			c0,0.2-0.1,0.4-0.4,0.4H12c-0.2,0-0.4-0.1-0.4-0.4V7.2c0-0.2,0.1-0.4,0.4-0.4h1.5c0.2,0,0.4,0.1,0.4,0.4V7.9z"/>
	</g>
</g>
</svg>
