<svg 
 xmlns="http://www.w3.org/2000/svg"
 xmlns:xlink="http://www.w3.org/1999/xlink"
 width="18px" height="18px">
<path fill-rule="evenodd"  fill="rgb(30, 100, 221)"
 d="M10.039,9.607 C10.039,9.979 9.841,10.322 9.519,10.508 C9.198,10.693 8.801,10.693 8.480,10.508 C8.158,10.322 7.960,9.979 7.960,9.607 L7.960,4.761 C7.960,4.390 8.158,4.046 8.480,3.861 C8.801,3.675 9.198,3.675 9.519,3.861 C9.841,4.046 10.039,4.390 10.039,4.761 L10.039,9.607 ZM8.999,14.107 C8.506,14.106 8.082,13.756 7.987,13.271 C7.892,12.787 8.153,12.303 8.609,12.115 C9.066,11.927 9.591,12.088 9.865,12.499 C10.138,12.911 10.083,13.458 9.733,13.806 C9.540,14.003 9.275,14.112 8.999,14.107 L8.999,14.107 ZM8.999,0.000 C7.795,-0.008 6.602,0.231 5.494,0.702 C3.331,1.610 1.610,3.331 0.702,5.494 C0.231,6.603 -0.008,7.796 -0.000,9.000 C-0.008,10.204 0.231,11.397 0.702,12.505 C1.610,14.669 3.331,16.389 5.494,17.298 C6.602,17.768 7.795,18.007 8.999,18.000 C10.204,18.007 11.397,17.768 12.505,17.298 C14.668,16.389 16.389,14.669 17.297,12.505 C17.768,11.397 18.007,10.204 17.999,9.000 C18.007,7.796 17.768,6.603 17.297,5.494 C16.389,3.331 14.668,1.610 12.505,0.702 C11.397,0.231 10.204,-0.008 8.999,0.000 L8.999,0.000 Z"/>
</svg>
