<?xml version="1.0" encoding="utf-8"?>
<!-- Generator: Adobe Illustrator 21.0.0, SVG Export Plug-In . SVG Version: 6.00 Build 0)  -->
<svg version="1.1" id="图层_1" xmlns="http://www.w3.org/2000/svg" xmlns:xlink="http://www.w3.org/1999/xlink" x="0px" y="0px"
	 viewBox="0 0 18 18" style="enable-background:new 0 0 18 18;" xml:space="preserve">
<style type="text/css">
	.st0{fill-rule:evenodd;clip-rule:evenodd;fill:none;}
	.st1{fill-rule:evenodd;clip-rule:evenodd;fill:#38DCBB;}
	.st2{fill-rule:evenodd;clip-rule:evenodd;fill:#FFFFFF;}
</style>
<rect x="0" y="0" class="st0" width="18" height="18"/>
<g id="椭圆_2_1_">
	<g>
		<circle class="st1" cx="9" cy="9" r="9"/>
	</g>
</g>
<g id="形状_29">
	<g>
		<path class="st2" d="M14.2,6c0-0.4-0.4-0.7-0.8-0.7c-0.3,0-0.5,0.1-0.6,0.3C11.1,7.3,9.3,9,7.6,10.8c0,0,0,0,0,0.1
			c0,0,0,0-0.1-0.1C6.7,10,5.9,9.2,5.2,8.4C5,8.3,4.7,8.2,4.5,8.2C4.1,8.2,3.8,8.6,3.8,9c0,0.3,0.1,0.5,0.3,0.6
			c1,0.9,1.9,1.9,2.9,2.8c0,0,0.1,0.1,0.1,0.1c0.1,0.1,0.2,0.2,0.4,0.2c0,0,0.1,0,0.1,0h0.1c0,0,0.1,0,0.1,0c0.2,0,0.3-0.1,0.4-0.2
			c0,0,0,0,0.1-0.1c1.9-1.9,3.8-3.8,5.8-5.7c0.2-0.2,0.3-0.3,0.3-0.6c0,0,0,0,0,0L14.2,6C14.2,6,14.2,6,14.2,6z"/>
	</g>
</g>
</svg>
