<svg 
 xmlns="http://www.w3.org/2000/svg"
 xmlns:xlink="http://www.w3.org/1999/xlink"
 width="17px" height="17px">
<path fill-rule="evenodd"
 d="M8.500,17.000 C3.806,17.000 -0.000,13.194 -0.000,8.500 C-0.000,3.805 3.806,-0.000 8.500,-0.000 C13.194,-0.000 17.000,3.805 17.000,8.500 C17.000,13.194 13.194,17.000 8.500,17.000 ZM8.500,2.125 C4.979,2.125 2.125,4.979 2.125,8.500 C2.125,12.021 4.979,14.875 8.500,14.875 C10.191,14.875 11.812,14.203 13.008,13.008 C14.203,11.812 14.875,10.191 14.875,8.500 C14.875,4.979 12.021,2.125 8.500,2.125 ZM11.071,11.251 C10.865,11.251 10.669,11.183 10.506,11.037 L8.187,8.975 C8.008,8.813 7.896,8.582 7.896,8.334 L7.896,5.108 C7.896,4.637 8.281,4.252 8.752,4.252 C9.222,4.252 9.608,4.637 9.608,5.108 L9.608,7.957 L11.644,9.763 C11.995,10.079 12.029,10.618 11.721,10.969 C11.541,11.157 11.310,11.251 11.071,11.251 Z"/>
</svg>
