<?xml version="1.0" encoding="utf-8"?>
<!-- Generator: Adobe Illustrator 21.0.0, SVG Export Plug-In . SVG Version: 6.00 Build 0)  -->
<svg version="1.1" xmlns="http://www.w3.org/2000/svg" xmlns:xlink="http://www.w3.org/1999/xlink" x="0px" y="0px"
	 viewBox="0 0 14 14" style="enable-background:new 0 0 14 14;" xml:space="preserve">
<style type="text/css">
    .st0{fill-rule:evenodd;clip-rule:evenodd;}

</style>
<g id="基础数据" class="st0">
	<g>
		<path class="st0" d="M13.2,9.8l-6.1,2.9l-6.3-3C0.5,9.6,0.2,9.7,0,10c-0.1,0.3,0,0.7,0.3,0.8L6.9,14C7,14,7.2,14,7.3,13.9
			c0,0,0,0,0,0l6.3-3c0.3-0.1,0.4-0.5,0.3-0.8C13.8,9.8,13.5,9.7,13.2,9.8z M0.3,5.2l6.5,3.1c0.1,0.1,0.3,0.1,0.4,0h0l6.3-3
			c0.3-0.1,0.4-0.5,0.3-0.8c-0.1-0.2-0.2-0.3-0.3-0.4L7.1,1C7,1,7,1,6.9,1C6.8,1,6.7,1,6.7,1L0.4,4C0.2,4.1,0.1,4.2,0,4.4
			c0,0,0,0,0,0v0C-0.1,4.7,0.1,5.1,0.3,5.2z M13.2,7.1L7.1,9.9L0.8,7C0.5,6.8,0.2,7,0,7.3c-0.1,0.3,0,0.7,0.3,0.8l6.5,3.1
			c0.1,0.1,0.3,0.1,0.4,0c0,0,0,0,0,0l6.3-3c0.3-0.1,0.4-0.5,0.3-0.8C13.8,7.1,13.5,6.9,13.2,7.1z"/>
	</g>
</g>

</svg>
