<svg 
 xmlns="http://www.w3.org/2000/svg"
 xmlns:xlink="http://www.w3.org/1999/xlink"
 width="16px" height="17px">
<defs>
<linearGradient id="PSgrad_0" x1="0%" x2="86.603%" y1="0%" y2="50%">
  <stop offset="0%" stop-color="rgb(81,242,103)" stop-opacity="1" />
  <stop offset="100%" stop-color="rgb(0,160,233)" stop-opacity="1" />
</linearGradient>

</defs>
<path fill-rule="evenodd"  fill="rgb(255, 255, 255)"
 d="M15.175,8.987 C14.948,8.987 14.750,8.788 14.750,8.561 L14.750,4.724 L13.045,4.724 C12.194,4.724 11.512,4.042 11.512,3.189 L11.512,1.825 L2.509,1.825 C2.112,1.825 1.799,2.138 1.799,2.507 L1.799,15.325 C1.799,15.694 2.112,16.007 2.481,16.007 L11.143,16.007 C11.370,16.007 11.569,16.206 11.569,16.433 C11.569,16.661 11.398,16.888 11.171,16.888 L2.509,16.888 C1.658,16.888 0.976,16.206 0.976,15.353 L0.976,2.507 C0.976,1.655 1.658,0.973 2.509,0.973 L12.052,0.973 C12.165,0.973 12.250,1.001 12.336,1.086 L15.460,3.985 C15.545,4.070 15.602,4.184 15.602,4.298 L15.602,8.561 C15.602,8.788 15.403,8.987 15.175,8.987 ZM12.364,2.270 L12.364,3.161 C12.364,3.530 12.676,3.843 13.045,3.843 L14.071,3.843 L12.364,2.270 ZM10.433,9.555 C10.433,9.783 10.234,9.982 10.007,9.982 L3.219,9.982 C2.992,9.982 2.794,9.783 2.794,9.555 C2.794,9.328 2.992,9.129 3.219,9.129 L10.007,9.129 C10.234,9.129 10.433,9.328 10.433,9.555 ZM3.219,6.884 L6.088,6.884 C6.315,6.884 6.514,7.083 6.514,7.310 C6.514,7.538 6.315,7.737 6.088,7.737 L3.219,7.737 C2.992,7.737 2.794,7.538 2.794,7.310 C2.794,7.083 2.992,6.884 3.219,6.884 ZM3.219,4.639 L8.076,4.639 C8.303,4.639 8.502,4.838 8.502,5.065 C8.502,5.321 8.303,5.491 8.076,5.491 L3.219,5.491 C2.992,5.491 2.794,5.292 2.794,5.065 C2.794,4.838 2.992,4.639 3.219,4.639 ZM14.125,13.392 L9.751,13.392 C9.524,13.392 9.325,13.193 9.325,12.966 C9.325,12.739 9.524,12.540 9.751,12.540 L14.068,12.540 L13.273,11.744 C13.102,11.573 13.102,11.318 13.273,11.147 C13.443,10.977 13.699,10.977 13.869,11.147 L15.431,12.710 C15.516,12.795 15.545,12.909 15.545,13.023 C15.545,13.136 15.488,13.250 15.431,13.335 L13.869,14.898 C13.784,14.927 13.670,14.955 13.585,14.955 C13.472,14.955 13.358,14.927 13.273,14.842 C13.102,14.671 13.102,14.415 13.273,14.245 L14.125,13.392 Z"/>
<path fill="url(#PSgrad_0)"
 d="M15.175,8.987 C14.948,8.987 14.750,8.788 14.750,8.561 L14.750,4.724 L13.045,4.724 C12.194,4.724 11.512,4.042 11.512,3.189 L11.512,1.825 L2.509,1.825 C2.112,1.825 1.799,2.138 1.799,2.507 L1.799,15.325 C1.799,15.694 2.112,16.007 2.481,16.007 L11.143,16.007 C11.370,16.007 11.569,16.206 11.569,16.433 C11.569,16.661 11.398,16.888 11.171,16.888 L2.509,16.888 C1.658,16.888 0.976,16.206 0.976,15.353 L0.976,2.507 C0.976,1.655 1.658,0.973 2.509,0.973 L12.052,0.973 C12.165,0.973 12.250,1.001 12.336,1.086 L15.460,3.985 C15.545,4.070 15.602,4.184 15.602,4.298 L15.602,8.561 C15.602,8.788 15.403,8.987 15.175,8.987 ZM12.364,2.270 L12.364,3.161 C12.364,3.530 12.676,3.843 13.045,3.843 L14.071,3.843 L12.364,2.270 ZM10.433,9.555 C10.433,9.783 10.234,9.982 10.007,9.982 L3.219,9.982 C2.992,9.982 2.794,9.783 2.794,9.555 C2.794,9.328 2.992,9.129 3.219,9.129 L10.007,9.129 C10.234,9.129 10.433,9.328 10.433,9.555 ZM3.219,6.884 L6.088,6.884 C6.315,6.884 6.514,7.083 6.514,7.310 C6.514,7.538 6.315,7.737 6.088,7.737 L3.219,7.737 C2.992,7.737 2.794,7.538 2.794,7.310 C2.794,7.083 2.992,6.884 3.219,6.884 ZM3.219,4.639 L8.076,4.639 C8.303,4.639 8.502,4.838 8.502,5.065 C8.502,5.321 8.303,5.491 8.076,5.491 L3.219,5.491 C2.992,5.491 2.794,5.292 2.794,5.065 C2.794,4.838 2.992,4.639 3.219,4.639 ZM14.125,13.392 L9.751,13.392 C9.524,13.392 9.325,13.193 9.325,12.966 C9.325,12.739 9.524,12.540 9.751,12.540 L14.068,12.540 L13.273,11.744 C13.102,11.573 13.102,11.318 13.273,11.147 C13.443,10.977 13.699,10.977 13.869,11.147 L15.431,12.710 C15.516,12.795 15.545,12.909 15.545,13.023 C15.545,13.136 15.488,13.250 15.431,13.335 L13.869,14.898 C13.784,14.927 13.670,14.955 13.585,14.955 C13.472,14.955 13.358,14.927 13.273,14.842 C13.102,14.671 13.102,14.415 13.273,14.245 L14.125,13.392 Z"/>
</svg>
