<svg 
 xmlns="http://www.w3.org/2000/svg"
 xmlns:xlink="http://www.w3.org/1999/xlink"
 width="18px" height="18px">
<path fill-rule="evenodd"  fill="rgb(30, 100, 221)"
 d="M8.998,-0.001 C4.027,-0.001 -0.002,4.029 -0.002,9.000 C-0.002,13.971 4.027,18.001 8.998,18.001 C13.969,18.001 17.999,13.971 17.999,9.000 C17.999,4.029 13.969,-0.001 8.998,-0.001 L8.998,-0.001 ZM14.161,6.665 L8.340,12.487 L8.340,12.487 C8.071,12.755 7.662,12.797 7.350,12.613 C7.292,12.578 7.237,12.536 7.188,12.487 C7.188,12.487 7.188,12.487 7.188,12.487 L3.836,9.135 C3.518,8.817 3.518,8.301 3.836,7.983 C4.154,7.665 4.670,7.665 4.988,7.983 L7.764,10.759 L13.009,5.513 C13.327,5.195 13.843,5.195 14.161,5.513 C14.479,5.831 14.479,6.347 14.161,6.665 L14.161,6.665 Z"/>
</svg>
