<?xml version="1.0" encoding="utf-8"?>
<!-- Generator: Adobe Illustrator 22.1.0, SVG Export Plug-In . SVG Version: 6.00 Build 0)  -->
<svg version="1.1" id="图层_1" xmlns="http://www.w3.org/2000/svg" xmlns:xlink="http://www.w3.org/1999/xlink" x="0px" y="0px"
	 viewBox="0 0 14 14" style="enable-background:new 0 0 14 14;" xml:space="preserve">
<style type="text/css">
	.st0{fill:url(#SVGID_1_);}
	.st1{fill:url(#SVGID_2_);}
</style>
<linearGradient id="SVGID_1_" gradientUnits="userSpaceOnUse" x1="2" y1="6.5" x2="12.0001" y2="6.5">
	<stop  offset="0" style="stop-color:#51F267"/>
	<stop  offset="1" style="stop-color:#00A0E9"/>
</linearGradient>
<path class="st0" d="M11.9,3.8L6.1,9.9c0,0,0,0,0,0c0,0,0,0,0,0c0,0-0.1,0-0.1,0.1c0,0,0,0,0,0c0,0,0,0,0,0c0,0,0,0,0,0
	c-0.1,0-0.1,0-0.2,0c0,0,0,0,0,0s0,0,0,0c-0.1,0-0.1,0-0.2,0c0,0,0,0,0,0c0,0-0.1,0-0.1-0.1c0,0,0,0,0,0c0,0,0,0,0,0L5.3,9.8
	L2.1,6.7C2.1,6.6,2,6.5,2,6.3v0C2,6.2,2,6.1,2.1,6c0,0,0,0,0,0c0,0,0,0,0,0c0.2-0.2,0.5-0.2,0.7,0l3,2.9l5.5-5.8
	C11.3,3.1,11.4,3,11.5,3c0,0,0,0,0,0c0,0,0,0,0,0c0.1,0,0.2,0,0.3,0.1c0,0,0,0,0,0c0,0,0,0,0,0c0,0,0,0,0,0l0,0
	C11.9,3.2,12,3.3,12,3.4C12,3.6,12,3.7,11.9,3.8z"/>
<g>
	
		<linearGradient id="SVGID_2_" gradientUnits="userSpaceOnUse" x1="0" y1="9" x2="14" y2="9" gradientTransform="matrix(1 0 0 -1 0 16)">
		<stop  offset="0" style="stop-color:#51F267"/>
		<stop  offset="1" style="stop-color:#00A0E9"/>
	</linearGradient>
	<path class="st1" d="M12,1c0.6,0,1,0.4,1,1v10c0,0.6-0.4,1-1,1H2c-0.6,0-1-0.4-1-1V2c0-0.6,0.4-1,1-1H12 M12,0H2C0.9,0,0,0.9,0,2
		v10c0,1.1,0.9,2,2,2h10c1.1,0,2-0.9,2-2V2C14,0.9,13.1,0,12,0L12,0z"/>
</g>
</svg>
