<?xml version="1.0" encoding="utf-8"?>
<!-- Generator: Adobe Illustrator 22.0.0, SVG Export Plug-In . SVG Version: 6.00 Build 0)  -->
<svg version="1.1" id="图层_1" xmlns="http://www.w3.org/2000/svg" xmlns:xlink="http://www.w3.org/1999/xlink" x="0px" y="0px"
	 viewBox="0 0 15.9 15.9" style="enable-background:new 0 0 15.9 15.9;" xml:space="preserve">
<style type="text/css">
	.st0{fill-rule:evenodd;clip-rule:evenodd;}
</style>
<g id="_x33_">
	<g>
		<path class="st0" d="M4.3,9.7c0.4-0.1,0.8-0.2,1.2-0.3c0.1,0,0.2-0.1,0.3-0.1C5.5,9,5.2,8.5,5,8.1C4.7,7.4,4.6,6.8,4.6,6.2
			c0-0.8,0-1.5,0.2-2c0.2-0.8,0.5-1.4,0.9-1.8C5.8,2.2,5.9,2,6.1,1.9C5.9,1,5.3,0.5,4.1,0.5C2.2,0.5,1.9,2,2,3.8
			C2,4.7,2.4,5.7,3,6.2c0.1,0.1,0.1,0.1,0.1,0.2c0,0.2,0,0.5-0.1,0.6c-0.5,0.7-2,0.7-3.1,1v4h0.9c0.1-0.3,0.3-0.6,0.5-0.9
			C2,10.2,3.2,10,4.3,9.7z M9.2,9.8C9.1,9.7,9.1,9.4,9.1,9.1c0-0.1,0-0.2,0.1-0.2c0.7-0.6,1.2-1.7,1.2-2.8c0-2-0.3-3.7-2.4-3.7
			c-2.1,0-2.4,1.7-2.4,3.7c0,1,0.5,2.1,1.2,2.7C6.8,9,6.8,9,6.8,9.1c0,0.3,0,0.6-0.1,0.7c-0.8,1.1-3.7,0.7-4.6,1.9
			c-0.6,0.8-0.7,2.6-0.8,3.3c0,0.2,0.1,0.3,0.3,0.3h12.5c0.2,0,0.3-0.2,0.3-0.3c0-0.8-0.2-2.5-0.8-3.3C12.8,10.5,10,10.9,9.2,9.8z
			 M12.9,7.1c-0.1-0.1-0.1-0.4-0.1-0.6c0-0.1,0-0.2,0.1-0.2C13.5,5.7,14,4.7,14,3.8c0-1.8-0.3-3.3-2.2-3.3c-1.2,0-1.8,0.6-2,1.5
			c0.5,0.3,0.8,0.8,1,1.2c0.5,0.9,0.5,2,0.5,3c0,0.6-0.1,1.3-0.4,1.9c-0.2,0.5-0.5,0.9-0.8,1.3c0.1,0,0.2,0.1,0.3,0.1
			c0.3,0.1,0.7,0.2,1.1,0.3c1.1,0.2,2.3,0.5,3,1.4c0.2,0.2,0.4,0.6,0.5,0.9h0.9V8.1C14.9,7.8,13.4,7.8,12.9,7.1z"/>
	</g>
</g>
</svg>
