<svg 
 xmlns="http://www.w3.org/2000/svg"
 xmlns:xlink="http://www.w3.org/1999/xlink"
 width="12px" height="12px">
<defs>
<linearGradient id="PSgrad_0" x1="0%" x2="0%" y1="100%" y2="0%">
  <stop offset="0%" stop-color="rgb(39,193,119)" stop-opacity="1" />
  <stop offset="99%" stop-color="rgb(101,217,123)" stop-opacity="1" />
</linearGradient>

</defs>
<path fill-rule="evenodd"  fill="rgb(63, 210, 122)"
 d="M6.000,-0.000 C9.314,-0.000 12.000,2.686 12.000,6.000 C12.000,9.313 9.314,12.000 6.000,12.000 C2.686,12.000 -0.000,9.313 -0.000,6.000 C-0.000,2.686 2.686,-0.000 6.000,-0.000 Z"/>
<path fill="url(#PSgrad_0)"
 d="M6.000,-0.000 C9.314,-0.000 12.000,2.686 12.000,6.000 C12.000,9.313 9.314,12.000 6.000,12.000 C2.686,12.000 -0.000,9.313 -0.000,6.000 C-0.000,2.686 2.686,-0.000 6.000,-0.000 Z"/>
<path fill-rule="evenodd"  fill="rgb(255, 255, 255)"
 d="M2.998,5.488 L4.105,4.691 L5.201,6.127 L8.187,3.999 L9.002,5.077 L5.996,7.221 L5.879,7.309 L4.915,8.002 L2.998,5.488 Z"/>
</svg>
