<svg 
 xmlns="http://www.w3.org/2000/svg"
 xmlns:xlink="http://www.w3.org/1999/xlink"
 width="20px" height="20px">
<path fill-rule="evenodd"
 d="M19.999,9.992 C19.999,4.473 15.522,-0.000 10.000,-0.000 C4.477,-0.000 -0.000,4.473 -0.000,9.992 C-0.000,15.089 3.820,19.295 8.756,19.907 C9.034,19.966 9.373,20.000 9.776,20.000 C9.890,20.000 9.999,19.994 10.105,19.983 C15.579,19.927 19.999,15.475 19.999,9.992 ZM18.570,10.133 C18.541,9.635 18.475,9.147 18.375,8.672 C18.384,8.503 18.386,8.343 18.381,8.193 C18.506,8.773 18.571,9.375 18.571,9.992 C18.571,10.039 18.570,10.086 18.570,10.133 ZM1.428,9.992 C1.428,9.386 1.491,8.795 1.611,8.225 C1.981,8.621 2.853,8.612 3.066,8.020 C3.447,8.247 3.959,8.288 3.959,8.742 C3.959,10.238 4.012,11.843 5.372,11.868 C5.410,11.868 6.130,12.141 6.473,13.029 C6.591,13.337 7.060,13.029 7.574,13.029 C7.831,13.029 7.574,13.462 7.574,14.396 C7.574,15.328 9.582,16.761 9.582,16.761 C9.572,17.378 9.598,17.876 9.649,18.274 C9.196,18.266 8.814,18.326 8.514,18.428 C4.488,17.725 1.428,14.216 1.428,9.992 ZM12.110,18.295 C12.065,18.077 11.871,17.958 11.516,18.051 C11.799,16.846 11.937,16.171 12.528,15.658 C13.382,14.918 12.629,14.094 11.979,14.191 C11.466,14.268 11.790,13.556 11.332,13.516 C10.875,13.478 10.277,12.568 9.619,12.255 C9.270,12.089 8.927,11.645 8.388,11.625 C7.911,11.606 7.214,12.028 7.214,11.703 C7.214,10.655 7.108,9.908 7.086,9.609 C7.068,9.369 6.929,9.528 7.574,9.544 C7.925,9.553 7.754,8.839 8.101,8.811 C8.443,8.784 9.256,9.130 9.463,8.992 C9.655,8.864 10.878,12.201 10.878,9.544 C10.878,9.229 10.715,8.680 10.878,8.382 C11.524,7.202 12.128,6.240 12.074,6.100 C12.043,6.020 11.413,5.955 10.909,6.124 C10.739,6.181 10.963,6.447 10.719,6.504 C9.804,6.716 8.995,6.257 9.278,5.827 C9.568,5.386 10.619,5.634 10.711,4.749 C10.764,4.242 10.808,3.655 10.837,3.218 C12.069,3.411 11.934,1.620 10.102,1.428 C13.808,1.471 16.948,3.864 18.100,7.185 C18.042,7.132 17.974,7.100 17.895,7.092 C17.342,5.709 15.998,6.710 16.454,7.930 C14.010,9.808 14.636,11.118 15.439,11.868 C15.861,12.262 16.264,12.855 16.526,13.281 C16.240,14.113 17.577,13.780 18.237,12.368 C17.398,15.276 15.058,17.549 12.110,18.295 Z"/>
</svg>
