<svg 
 xmlns="http://www.w3.org/2000/svg"
 xmlns:xlink="http://www.w3.org/1999/xlink"
 width="12px" height="12px">
<defs>
<linearGradient id="PSgrad_0" x1="0%" x2="0%" y1="100%" y2="0%">
  <stop offset="0%" stop-color="rgb(251,69,69)" stop-opacity="1" />
  <stop offset="52%" stop-color="rgb(253,98,87)" stop-opacity="1" />
  <stop offset="99%" stop-color="rgb(255,126,105)" stop-opacity="1" />
</linearGradient>

</defs>
<path fill-rule="evenodd"  fill="rgb(63, 210, 122)"
 d="M6.000,-0.000 C9.314,-0.000 12.000,2.686 12.000,6.000 C12.000,9.314 9.314,12.000 6.000,12.000 C2.686,12.000 -0.000,9.314 -0.000,6.000 C-0.000,2.686 2.686,-0.000 6.000,-0.000 Z"/>
<path fill="url(#PSgrad_0)"
 d="M6.000,-0.000 C9.314,-0.000 12.000,2.686 12.000,6.000 C12.000,9.314 9.314,12.000 6.000,12.000 C2.686,12.000 -0.000,9.314 -0.000,6.000 C-0.000,2.686 2.686,-0.000 6.000,-0.000 Z"/>
<path fill-rule="evenodd"  fill="rgb(255, 255, 255)"
 d="M6.994,6.001 L8.997,8.003 L7.999,9.000 L5.997,6.998 L3.995,9.000 L2.998,8.003 L5.000,6.001 L2.998,3.999 L3.995,3.001 L5.997,5.003 L7.999,3.001 L8.997,3.999 L6.994,6.001 Z"/>
</svg>
