<?xml version="1.0" encoding="utf-8"?>
<!-- Generator: Adobe Illustrator 22.0.0, SVG Export Plug-In . SVG Version: 6.00 Build 0)  -->
<svg version="1.1" id="批量查询" xmlns="http://www.w3.org/2000/svg" xmlns:xlink="http://www.w3.org/1999/xlink" x="0px"
	 y="0px" viewBox="0 0 15.9 15.9" style="enable-background:new 0 0 15.9 15.9;" xml:space="preserve">
<style type="text/css">
	.st0{fill-rule:evenodd;clip-rule:evenodd;fill:#7A8693;}
</style>
<g id="形状_1023">
	<g>
		<path class="st0" d="M16,12.9V3.5c0-0.6-0.4-1.1-1.1-1.1h-1.4V1C13.5,0.4,13,0,12.4,0H1C0.4,0-0.1,0.4-0.1,1v11.4
			c0,0.6,0.4,1.1,1.1,1.1h1.4v1.4c0,0.6,0.4,1.1,1.1,1.1h11.4c0,0,0,0,0,0H13v-1.2H3.6V3.7h11.1v9.2H16z M12.4,2.4H2.5v9.8H1.4v-11
			h11V2.4z M9.3,6C7.5,6,6,7.5,6,9.3c0,1.8,1.5,3.3,3.3,3.3c0.7,0,1.4-0.2,2-0.6l1.8,1.8c0.2,0.2,0.5,0.2,0.7,0c0,0,0,0,0,0
			c0.2-0.2,0.2-0.5,0-0.7c0,0,0,0,0,0L12,11.3c0.4-0.6,0.6-1.3,0.6-2C12.7,7.5,11.1,6,9.3,6z M9.3,11.6C8,11.6,7,10.6,7,9.3
			C7,8,8,7,9.3,7c1.3,0,2.3,1,2.3,2.3C11.6,10.6,10.6,11.6,9.3,11.6z"/>
	</g>
</g>
</svg>
