<?xml version="1.0" encoding="utf-8"?>
<!-- Generator: Adobe Illustrator 22.1.0, SVG Export Plug-In . SVG Version: 6.00 Build 0)  -->
<svg version="1.1" id="图层_1" xmlns="http://www.w3.org/2000/svg" xmlns:xlink="http://www.w3.org/1999/xlink" x="0px" y="0px"
	 viewBox="0 0 26 26" style="enable-background:new 0 0 26 26;" xml:space="preserve">
<style type="text/css">
	.st1{fill:#FFFFFF;}
</style>
<g>
	<circle class="st0" cx="13" cy="13" r="12.3"/>
	<path class="st1" d="M13,1.5c6.3,0,11.5,5.2,11.5,11.5S19.3,24.5,13,24.5S1.5,19.3,1.5,13S6.7,1.5,13,1.5 M13,0C5.8,0,0,5.8,0,13
		s5.8,13,13,13s13-5.8,13-13S20.2,0,13,0L13,0z"/>
</g>
<path class="st1" d="M19.7,9.9l-8.1,7.9c-0.4,0.4-1.2,0.4-1.6,0l-3.6-3.5c-0.4-0.4-0.4-1.2,0-1.6c0.4-0.4,1.2-0.4,1.6,0l2.6,2.8
	l7.3-7.1c0.6-0.4,1.2-0.4,1.8,0C20.1,8.7,20.1,9.5,19.7,9.9L19.7,9.9z"/>
</svg>
