<svg 
 xmlns="http://www.w3.org/2000/svg"
 xmlns:xlink="http://www.w3.org/1999/xlink"
 width="14px" height="14px">
<path fill-rule="evenodd" 
 d="M12.425,11.260 L1.575,11.260 C0.721,11.260 -0.000,10.579 -0.000,9.773 L-0.000,2.450 C-0.000,1.616 0.692,0.963 1.575,0.963 L12.425,0.963 C13.308,0.963 14.000,1.616 14.000,2.450 L14.000,9.773 C14.000,10.607 13.308,11.260 12.425,11.260 ZM12.834,2.450 C12.834,2.199 12.623,2.064 12.425,2.064 L1.575,2.064 C1.377,2.064 1.166,2.199 1.166,2.450 L1.166,9.773 C1.166,9.964 1.373,10.159 1.575,10.159 L12.425,10.159 C12.623,10.159 12.834,10.024 12.834,9.773 L12.834,2.450 ZM6.660,7.849 C6.616,7.887 6.581,7.908 6.540,7.927 C6.407,7.987 6.338,7.999 6.266,7.999 C6.193,7.999 6.123,7.987 6.057,7.962 C5.953,7.908 5.915,7.888 5.879,7.856 C5.846,7.825 4.459,6.540 4.459,6.540 C4.354,6.440 4.297,6.312 4.299,6.175 C4.301,6.036 4.362,5.909 4.470,5.814 C4.574,5.723 4.710,5.673 4.854,5.673 C5.005,5.673 5.145,5.726 5.249,5.824 L6.269,6.769 L8.744,4.511 C8.848,4.415 8.986,4.363 9.136,4.363 C9.281,4.363 9.419,4.414 9.523,4.508 C9.631,4.603 9.690,4.732 9.690,4.870 C9.691,5.007 9.633,5.136 9.527,5.232 L6.660,7.849 ZM3.309,12.777 L10.755,12.777 C11.264,12.777 11.518,12.957 11.518,13.378 C11.518,13.798 11.264,13.978 10.755,13.978 L3.309,13.978 C2.800,13.978 2.545,13.798 2.545,13.378 C2.545,12.957 2.800,12.777 3.309,12.777 Z"/>
</svg>
