<svg 
 xmlns="http://www.w3.org/2000/svg"
 xmlns:xlink="http://www.w3.org/1999/xlink"
 width="14px" height="14px">
<path fill-rule="evenodd" 
 d="M12.425,11.260 L1.575,11.260 C0.721,11.260 -0.000,10.579 -0.000,9.773 L-0.000,2.450 C-0.000,1.616 0.692,0.963 1.575,0.963 L12.425,0.963 C13.308,0.963 14.000,1.616 14.000,2.450 L14.000,9.773 C14.000,10.607 13.308,11.260 12.425,11.260 ZM12.834,2.450 C12.834,2.199 12.623,2.064 12.425,2.064 L1.575,2.064 C1.377,2.064 1.166,2.199 1.166,2.450 L1.166,9.773 C1.166,9.964 1.373,10.159 1.575,10.159 L12.425,10.159 C12.623,10.159 12.834,10.024 12.834,9.773 L12.834,2.450 ZM7.833,6.112 L9.128,7.396 C9.338,7.604 9.358,7.935 9.176,8.168 L9.128,8.223 L9.072,8.271 C8.859,8.435 8.562,8.435 8.349,8.271 L8.293,8.223 L7.000,6.939 L5.706,8.223 C5.496,8.431 5.162,8.452 4.928,8.271 L4.872,8.223 C4.642,7.994 4.642,7.624 4.872,7.396 L6.166,6.112 L4.872,4.828 C4.662,4.619 4.641,4.288 4.823,4.055 L4.872,4.000 L4.928,3.952 C5.141,3.788 5.438,3.788 5.650,3.952 L5.650,3.951 L5.706,4.000 L7.000,5.284 L8.293,4.000 C8.504,3.792 8.837,3.771 9.072,3.952 L9.128,4.000 C9.358,4.229 9.358,4.599 9.128,4.828 L7.833,6.112 ZM3.309,12.777 L10.755,12.777 C11.264,12.777 11.518,12.957 11.518,13.378 C11.518,13.798 11.264,13.978 10.755,13.978 L3.309,13.978 C2.800,13.978 2.545,13.798 2.545,13.378 C2.545,12.957 2.800,12.777 3.309,12.777 Z"/>
</svg>
