<?xml version="1.0" encoding="utf-8"?>
<!-- Generator: Adobe Illustrator 22.0.0, SVG Export Plug-In . SVG Version: 6.00 Build 0)  -->
<svg version="1.1" id="图层_1" xmlns="http://www.w3.org/2000/svg" xmlns:xlink="http://www.w3.org/1999/xlink" x="0px" y="0px"
	 viewBox="0 0 11.9 11.9" style="enable-background:new 0 0 11.9 11.9;" xml:space="preserve">
<style type="text/css">
	.st0{fill-rule:evenodd;clip-rule:evenodd;}
</style>
<g id="重设用户密码">
	<g>
		<path class="st0" d="M9.6,4.5H9.3V3.3C9.3,1.4,7.8,0,6,0c-1.8,0-3.3,1.5-3.3,3.3v1.2H2.3C1.5,4.5,1,5.1,0.9,5.8v4.8
			c0,0.7,0.6,1.3,1.3,1.3h7.3c0.7,0,1.3-0.6,1.3-1.3V5.8C10.9,5.1,10.4,4.5,9.6,4.5z M3.6,3.3c0-1.3,1.1-2.4,2.4-2.4
			c1.3,0,2.4,1.1,2.4,2.4v1.2H3.6V3.3z M10,10.6c0,0.2-0.2,0.4-0.4,0.4H2.3c-0.2,0-0.4-0.2-0.4-0.4V5.8c0-0.2,0.2-0.4,0.4-0.4h7.3
			c0.2,0,0.4,0.2,0.4,0.4L10,10.6z M6,6.4L6,6.4C5.3,6.4,4.7,7,4.7,7.7c0,0.6,0.4,1.1,1,1.2v0.7c0,0.1,0.1,0.3,0.3,0.3
			c0.1,0,0.3-0.1,0.3-0.3V8.9c0.7-0.1,1.1-0.8,1-1.5C7.1,6.9,6.5,6.4,6,6.4z M6,8.4c-0.4,0-0.7-0.3-0.7-0.7C5.2,7.3,5.6,7,6,7
			c0.4,0,0.7,0.3,0.7,0.7C6.7,8.1,6.3,8.4,6,8.4z"/>
	</g>
</g>
</svg>
