<?xml version="1.0" standalone="no"?><!DOCTYPE svg PUBLIC "-//W3C//DTD SVG 1.1//EN" "http://www.w3.org/Graphics/SVG/1.1/DTD/svg11.dtd"><svg t="1655092104168" class="icon" viewBox="0 0 1024 1024" version="1.1" xmlns="http://www.w3.org/2000/svg" p-id="5654" xmlns:xlink="http://www.w3.org/1999/xlink" width="200" height="200"><defs><style type="text/css">@font-face { font-family: feedback-iconfont; src: url("//at.alicdn.com/t/font_1031158_u69w8yhxdu.woff2?t=1630033759944") format("woff2"), url("//at.alicdn.com/t/font_1031158_u69w8yhxdu.woff?t=1630033759944") format("woff"), url("//at.alicdn.com/t/font_1031158_u69w8yhxdu.ttf?t=1630033759944") format("truetype"); }
</style></defs><path d="M70.979105 559.541065c0-0.295194 0-0.590389-0.059039-0.797025-0.059039-1.889244-0.206636-3.660411-0.501831-5.343019-1.328375-13.608464-2.1254-27.512122-2.1254-41.474819 0-244.568595 199.079132-443.588688 443.647727-443.588688 147.449624 0 277.984606 72.706391 358.51365 183.78806l-149.929257 0c-1.387414-0.088558-2.715789-0.236156-4.103203-0.236156-19.09908 0-34.449191 15.350111-34.449191 34.301594s15.497708 34.449191 34.449191 34.449191c1.387414 0 2.715789-0.147597 4.103203-0.295194l191.020323 0c0 0.147597 0.147597 0.206636 0.147597 0.354233 0 0 74.684194-0.206636 74.684194-0.354233l0.147597 0c-23.320361-65.444608-68.367033-118.550088-68.367033-118.550088-93.45856-122.446655-240.465392-201.794921-406.128513-201.794921-282.235406 0-511.955721 229.661276-511.955721 511.896682 0 15.202514 0.797025 30.345989 2.272997 45.13523-0.059039 0.885583-0.059039 1.771167-0.059039 2.479633 0 18.951483 15.350111 34.449191 34.449191 34.449191C55.451877 593.990256 70.979105 578.492548 70.979105 559.541065L70.979105 559.541065z" p-id="5655"></path><path d="M1023.069739 492.768082l-0.649428 0c-0.885583-18.213497-15.9405-32.825622-34.153997-32.825622-19.069561 0-34.596789 15.438669-34.596789 34.449191 0 3.71945 0.501831 7.379861 1.741647 10.745078 0.236156 2.272997 0.295194 4.545994 0.295194 6.87803 0 244.657154-199.020093 443.588688-443.647727 443.588688-138.150999 0-261.453717-63.850558-342.868344-163.094929l144.586238 0c1.328375 0.295194 2.774828 0.295194 4.162242 0.295194s2.774828 0 4.103203-0.295194l1.535011 0 0-0.354233c16.324253-2.568192 28.810978-16.737525 28.810978-33.858803 0-16.97368-12.516244-31.143014-28.810978-33.858803l0-0.147597-1.682608 0c-1.328375-0.147597-2.627231-0.295194-4.103203-0.295194-1.387414 0-2.863386 0.147597-4.162242 0.295194l-195.064487 0-68.248955 0c0 0 9.151028 43.305025 68.248955 113.64986 94.786935 112.557641 234.974776 186.061057 393.464672 186.061057 282.235406 0 511.896682-229.661276 511.896682-511.955721C1023.955322 505.431924 1023.217336 499.203321 1023.069739 492.768082L1023.069739 492.768082z" p-id="5656"></path></svg>