<svg 
 xmlns="http://www.w3.org/2000/svg"
 xmlns:xlink="http://www.w3.org/1999/xlink"
 width="16px" height="16px">
<path fill-rule="evenodd"  fill="rgb(0, 160, 233)"
 d="M11.686,11.192 C11.581,11.518 11.338,11.756 11.021,11.854 C10.863,11.923 10.689,11.963 10.505,11.963 L4.269,11.963 L4.269,11.915 L4.245,11.915 L4.245,5.325 C4.245,5.283 4.265,5.248 4.269,5.207 L4.269,5.155 C4.269,4.686 4.584,4.293 5.005,4.152 C5.163,4.080 5.334,4.036 5.516,4.036 L11.752,4.036 L11.752,4.085 L11.800,4.085 L11.800,10.675 C11.800,10.859 11.757,11.033 11.686,11.192 ZM3.717,5.131 L3.717,11.939 L1.271,11.939 C0.576,11.939 -0.000,11.356 -0.000,10.650 L-0.000,1.289 C-0.000,0.584 0.576,-0.000 1.271,-0.000 L10.529,-0.000 C11.224,-0.000 11.800,0.584 11.800,1.289 L11.800,3.501 L5.324,3.501 C4.437,3.501 3.717,4.231 3.717,5.131 Z"/>
<path fill-rule="evenodd"  fill="rgb(81, 242, 103)"
 d="M14.726,16.000 L5.492,16.000 C4.797,16.000 4.221,15.416 4.221,14.711 L4.221,12.474 L10.697,12.474 C11.584,12.474 12.304,11.745 12.304,10.845 L12.304,4.036 L14.750,4.036 C15.469,4.036 16.045,4.620 15.997,5.325 L15.997,14.711 C15.997,15.416 15.421,16.000 14.726,16.000 ZM11.021,11.854 C10.863,11.923 10.689,11.963 10.505,11.963 L4.269,11.963 L4.269,11.915 L4.245,11.915 L4.245,5.325 C4.245,5.283 4.265,5.248 4.269,5.207 L4.269,5.155 C4.269,4.686 4.584,4.293 5.005,4.152 C5.163,4.080 5.334,4.036 5.516,4.036 L11.752,4.036 L11.752,4.085 L11.800,4.085 L11.800,10.675 C11.800,10.859 11.757,11.033 11.686,11.192 C11.581,11.518 11.338,11.756 11.021,11.854 Z"/>
</svg>
